<svg xmlns="http://www.w3.org/2000/svg" width="1400" height="760" viewBox="0 0 1400 760" role="img" aria-labelledby="title desc">
<title id="title">Agentic Development Operating System map</title><desc id="desc">Product intent flows through a bounded agent loop into traceable evidence and human review. This is a Lab-stage candidate, not a canonical or production-proven harness.</desc>
<defs><linearGradient id="bg" x2="1" y2="1"><stop stop-color="#07101f"/><stop offset="1" stop-color="#111d37"/></linearGradient><linearGradient id="a" x2="1" y2="1"><stop stop-color="#183d58"/><stop offset="1" stop-color="#102b44"/></linearGradient><linearGradient id="b" x2="1" y2="1"><stop stop-color="#3d2862"/><stop offset="1" stop-color="#251c49"/></linearGradient><linearGradient id="c" x2="1" y2="1"><stop stop-color="#164b43"/><stop offset="1" stop-color="#103731"/></linearGradient><marker id="arrow" markerWidth="12" markerHeight="12" refX="10" refY="6" orient="auto"><path d="M0 0l12 6-12 6z" fill="#8ea9d7"/></marker><style>.s{font-family:Segoe UI,Arial,sans-serif}.label{font-size:15px;letter-spacing:2px;font-weight:700;fill:#8fa9d6}.h{font-size:27px;font-weight:700;fill:#f5f8ff}.body{font-size:18px;fill:#cfdbef}.small{font-size:14px;fill:#9fb0cd}.chip{font-size:13px;font-weight:700;fill:#d9e6ff}</style></defs>
<rect width="1400" height="760" rx="28" fill="url(#bg)"/><circle cx="1215" cy="-50" r="310" fill="#5527a6" opacity=".12"/><circle cx="70" cy="760" r="260" fill="#18a999" opacity=".1"/>
<g class="s"><text x="70" y="78" class="label">AGENTIC DEVELOPMENT OPERATING SYSTEM</text><text x="70" y="122" class="h" font-size="38">Intent in. Bounded work. Evidence out.</text><text x="70" y="158" class="body">Repository-native governance and traceability for AI-assisted software delivery</text><rect x="1090" y="64" width="240" height="44" rx="22" fill="#211b3f" stroke="#8d73ff"/><text x="1210" y="92" text-anchor="middle" class="chip">LAB · CANDIDATE · 1.1.0 SOURCE</text>
<rect x="70" y="220" width="360" height="390" rx="24" fill="url(#a)" stroke="#2f7397"/><rect x="520" y="220" width="360" height="390" rx="24" fill="url(#b)" stroke="#7b5cc9"/><rect x="970" y="220" width="360" height="390" rx="24" fill="url(#c)" stroke="#2c897c"/>
<text x="105" y="272" class="label">01 · PRODUCT INTENT</text><text x="105" y="310" class="h">Choose the right work</text><g class="body"><rect x="105" y="345" width="290" height="48" rx="12" fill="#0d263a"/><text x="130" y="376">Outcome + target</text><rect x="105" y="408" width="290" height="48" rx="12" fill="#0d263a"/><text x="130" y="439">Evidenced opportunity</text><rect x="105" y="471" width="290" height="48" rx="12" fill="#0d263a"/><text x="130" y="502">Validated bet</text><rect x="105" y="534" width="290" height="48" rx="12" fill="#0d263a"/><text x="130" y="565">PRD + spec + milestone</text></g>
<text x="555" y="272" class="label">02 · BOUNDED AGENT LOOP</text><text x="555" y="310" class="h">Control the change</text><circle cx="700" cy="425" r="84" fill="#171733" stroke="#9a7ce8" stroke-width="2"/><text x="700" y="412" text-anchor="middle" class="body" font-weight="700">Ticket</text><text x="700" y="440" text-anchor="middle" class="small">scope · risk · verify</text><path d="M700 337c115 0 135 153 50 183" fill="none" stroke="#9a7ce8" stroke-width="4" marker-end="url(#arrow)"/><path d="M650 520c-110-30-85-180 0-183" fill="none" stroke="#9a7ce8" stroke-width="4" marker-end="url(#arrow)"/><text x="585" y="558" class="small">plan → implement → verify → stop / handoff</text>
<text x="1005" y="272" class="label">03 · TRACEABLE EVIDENCE</text><text x="1005" y="310" class="h">Explain the result</text><g class="body"><rect x="1005" y="345" width="290" height="48" rx="12" fill="#0b2b28"/><text x="1030" y="376">Tests + CI gates</text><rect x="1005" y="408" width="290" height="48" rx="12" fill="#0b2b28"/><text x="1030" y="439">Events + metrics</text><rect x="1005" y="471" width="290" height="48" rx="12" fill="#0b2b28"/><text x="1030" y="502">Bidirectional trace</text><rect x="1005" y="534" width="290" height="48" rx="12" fill="#0b2b28"/><text x="1030" y="565">Human outcome review</text></g><line x1="438" y1="415" x2="505" y2="415" stroke="#8ea9d7" stroke-width="4" marker-end="url(#arrow)"/><line x1="888" y1="415" x2="955" y2="415" stroke="#8ea9d7" stroke-width="4" marker-end="url(#arrow)"/>
<rect x="70" y="650" width="1260" height="64" rx="18" fill="#0a1224" stroke="#243654"/><text x="95" y="690" class="small">PYTHON 3.11+ STANDARD LIBRARY</text><text x="425" y="690" class="small">REPOSITORY-NATIVE FILES</text><text x="735" y="690" class="small">HUMAN HIGH-RISK APPROVAL</text><text x="1060" y="690" class="small">NOT CANONICAL</text><text x="70" y="742" class="small">Model: main@22523bc · documented 2026-07-17 · original project asset · no external media</text></g></svg>